<?xml version="1.0" encoding="UTF-8"?>
<svg width="120" height="110" version="1.1" viewBox="0 0 31.75 29.104" xmlns="http://www.w3.org/2000/svg">
 <g transform="translate(0 -267.9)">
  <path transform="matrix(.26458 0 0 .26458 0 267.9)" d="m6.4883 0c-3.5676 0-6.4883 2.9131-6.4883 6.4805v97.037c0 3.5673 2.9207 6.4824 6.4883 6.4824h107.02c3.5676 0 6.4883-2.915 6.4883-6.4824v-97.037c0-3.5673-2.9207-6.4805-6.4883-6.4805h-107.02zm0 2.998h107.02c1.9578 0 3.4922 1.5256 3.4922 3.4824v97.037c0 1.9568-1.5344 3.4844-3.4922 3.4844h-107.02c-1.9578 0-3.4844-1.5276-3.4844-3.4844v-97.037c0-1.9568 1.5265-3.4824 3.4844-3.4824zm38.012 7.002c-9.4607 0-17.709 3.476-24.748 10.426-6.5014 6.9498-9.752 14.976-9.752 24.078 0 7.443 2.2409 14.258 6.7246 20.445 0.62771 1.0312 2.2647 2.8232 4.9102 5.3789 6.8153 5.7392 14.279 8.6094 22.395 8.6094h0.875c2.1074 0 4.4168-0.24697 6.9277-0.74023 4.72-1.1014 8.9226-2.9787 12.607-5.6328-0.37817-0.2982-0.75534-0.59949-1.1289-0.91406l-0.050781-0.039063-0.03711-0.046875c-2.659-2.5689-4.2871-4.2686-5.1504-5.6719-1.4763-2.0454-2.6956-4.1761-3.709-6.3672-3.0214 1.9968-6.3095 3.002-9.8633 3.002-4.5286 0-8.5633-1.5704-12.105-4.709-3.9905-3.8112-5.9863-8.2498-5.9863-13.316 0-4.4837 1.5723-8.5185 4.7109-12.105 3.8112-3.9457 8.2694-5.9199 13.381-5.9199 3.475 0 6.7502 0.98952 9.8262 2.9512 1.6797-3.6211 4.0015-7.0207 6.9512-10.174l0.019531-0.027344 0.027344-0.029296c0.99733-0.98464 2.0238-1.8989 3.0742-2.752-6.0381-4.2777-12.666-6.4453-19.898-6.4453zm44.045 0.001953c-9.4607 0-17.711 3.4741-24.75 10.424-6.5014 6.9498-9.752 14.976-9.752 24.078 0 7.443 2.2409 14.258 6.7246 20.445 0.62771 1.0313 2.2648 2.8251 4.9102 5.3809 6.8153 5.7392 14.281 8.6094 22.396 8.6094h0.875c2.1074 0 4.4168-0.24703 6.9277-0.74023 5.3805-1.2554 10.088-3.5198 14.123-6.793l-10.156-12.914c-3.4076 2.6902-7.1738 4.0352-11.299 4.0352-4.5286 0-8.5633-1.5684-12.105-4.707-3.9905-3.8112-5.9863-8.2498-5.9863-13.316 0-4.4837 1.5704-8.5204 4.709-12.107 3.8112-3.9457 8.2714-5.918 13.383-5.918 4.0354 0 7.8015 1.3234 11.299 3.9688l10.156-12.846-0.13477-0.13476c-6.4117-4.977-13.519-7.4648-21.32-7.4648zm-65.656 70.158c-0.098268 0-0.18739 0.038574-0.26562 0.11719-0.058205 0.05896-0.087891 0.13806-0.087891 0.23633v18.896c0 0.098268 0.02893 0.18701 0.087891 0.26562 0.078614 0.058205 0.16774 0.087891 0.26562 0.087891h2.709c0.09789 0 0.17542-0.02893 0.23438-0.087891 0.078236-0.078614 0.11719-0.16736 0.11719-0.26562v-18.896c0-0.098268-0.038952-0.17737-0.11719-0.23633-0.05896-0.078236-0.13648-0.11719-0.23438-0.11719h-2.709zm72.811 0c-0.19616 0-0.29492 0.096812-0.29492 0.29297v5.5371c0 0.03893-0.019287 0.068993-0.058594 0.087891-0.019653 0.018898-0.048583 0.01001-0.087891-0.029297-0.6672-0.94193-1.6385-1.4141-2.9141-1.4141-1.1774 0-2.1294 0.41213-2.8555 1.2363-0.70639 0.80455-1.0798 1.8649-1.1191 3.1797-0.018898 0.72608-0.029297 1.7864-0.029297 3.1797 0 1.4522 0.010399 2.5415 0.029297 3.2676 0.058885 1.3344 0.44201 2.4218 1.1484 3.2656 0.72608 0.82416 1.6684 1.2363 2.8262 1.2363 0.60832 0 1.1578-0.11805 1.6484-0.35352 0.5102-0.25512 0.93189-0.61692 1.2656-1.0879 0.03893-0.041575 0.068993-0.050148 0.087891-0.03125 0.040063 0.019653 0.058594 0.050536 0.058594 0.089844v0.85352c0 0.19616 0.098764 0.29297 0.29492 0.29297h1.502c0.19616 0 0.29297-0.096811 0.29297-0.29297v-19.018c0-0.19616-0.096812-0.29297-0.29297-0.29297h-1.502zm-80.49 4.3281c-1.6091 0-2.8842 0.44117-3.8262 1.3242-0.92233 0.86345-1.3828 2.0108-1.3828 3.4434v5.9453c0 1.4718 0.46048 2.6405 1.3828 3.5039 0.94193 0.86345 2.2171 1.2949 3.8262 1.2949 1.6091 0 2.8862-0.41214 3.8281-1.2363 0.94193-0.84382 1.4121-1.9428 1.4121-3.2969v-0.5293c0-0.098016-0.038826-0.17737-0.11719-0.23633-0.05896-0.078362-0.13831-0.11719-0.23633-0.11719l-2.707-0.029296c-0.098268-1e-6 -0.18726 0.038573-0.26562 0.11719-0.058961 0.058961-0.087891 0.13831-0.087891 0.23633v0.29297c0 0.51021-0.17606 0.95331-0.5293 1.3262-0.33361 0.35323-0.76508 0.5293-1.2949 0.5293-0.52984 0-0.96327-0.1954-1.2969-0.58789-0.33358-0.39247-0.5-0.89363-0.5-1.502v-5.4453c1e-6 -0.60833 0.16642-1.1095 0.5-1.502 0.33361-0.39247 0.76704-0.58789 1.2969-0.58789 0.52984 0 0.96132 0.18576 1.2949 0.55859 0.35324 0.35324 0.5293 0.77504 0.5293 1.2656v0.32422c0 0.21594 0.11792 0.32422 0.35352 0.32422l2.707-0.11914c0.098016 0 0.17737-0.02893 0.23633-0.08789 0.078362-0.078615 0.11719-0.16566 0.11719-0.26367v-0.41211c0-1.3148-0.47018-2.3945-1.4121-3.2383-0.94193-0.86342-2.219-1.2949-3.8281-1.2949zm18.371 0c-1.4325 0-2.6302 0.40247-3.5918 1.207-0.94203 0.80456-1.4606 1.8726-1.5586 3.207-0.019654 0.23559 0.088628 0.35352 0.32422 0.35352h2.8535c0.23494 0 0.36266-0.11792 0.38281-0.35352 0.058885-0.45133 0.22723-0.80348 0.50195-1.0586 0.27475-0.27472 0.6172-0.41211 1.0293-0.41211 0.52984 0 0.97101 0.21476 1.3242 0.64648 0.35324 0.41209 0.53125 0.97129 0.53125 1.6777v0.76562c0 0.098016-0.050422 0.14648-0.14844 0.14648h-1.5c-1.7661 0-3.1709 0.37344-4.2109 1.1191-1.0204 0.7457-1.5293 2.0015-1.5293 3.7676 0 1.6876 0.42181 2.8563 1.2656 3.5039 0.86345 0.62796 1.8541 0.94141 2.9727 0.94141 1.2755 0 2.2662-0.3928 2.9727-1.1777 0.039055-0.059465 0.07788-0.078752 0.11719-0.058594 0.039307 0.019653 0.060547 0.058227 0.060547 0.11719v0.53125c0 0.098016 0.02893 0.18506 0.087891 0.26367 0.078614 0.058961 0.16566 0.089844 0.26367 0.089844h2.709c0.098016 0 0.17737-0.030883 0.23633-0.089844 0.078362-0.078614 0.11719-0.16566 0.11719-0.26367v-10.01c0-1.4718-0.4818-2.6579-1.4434-3.5605-0.96154-0.90268-2.2173-1.3535-3.7676-1.3535zm12.234 0.058594c-1.4914 0-2.6795 0.3928-3.5625 1.1777-0.86345 0.76533-1.2949 1.8334-1.2949 3.207 0 1.3148 0.3541 2.3054 1.0605 2.9727 0.72607 0.66721 1.6471 1.2167 2.7656 1.6484 0.7653 0.314 1.2955 0.54041 1.5898 0.67774 0.29438 0.13737 0.56913 0.34442 0.82422 0.61914 0.25512 0.25512 0.38281 0.57824 0.38281 0.9707 0 0.45135-0.14706 0.82479-0.44141 1.1191-0.29438 0.29435-0.69682 0.44141-1.207 0.44141-0.52984 0-0.98068-0.15868-1.3535-0.47266-0.35324-0.31398-0.53125-0.70483-0.53125-1.1758v-0.26562c0-0.15698-0.11597-0.23633-0.35156-0.23633h-2.5332c-0.098015 0-0.18506 0.040526-0.26367 0.11914-0.058961 0.058961-0.087891 0.13636-0.087891 0.23438v0.20703c0 1.2755 0.46051 2.2855 1.3828 3.0312 0.92231 0.7457 2.1587 1.1191 3.709 1.1191 1.5699 0 2.816-0.38311 3.7383-1.1484 0.92231-0.76533 1.3828-1.8044 1.3828-3.1191-1e-6 -0.88307-0.21476-1.6203-0.64648-2.209-0.41209-0.60833-0.90356-1.0688-1.4727-1.3828-0.54944-0.33361-1.2363-0.66639-2.0605-1-0.68682-0.2944-1.1764-0.51111-1.4707-0.64844-0.29425-0.15698-0.55933-0.36402-0.79492-0.61914-0.23559-0.25509-0.35352-0.56854-0.35352-0.94141 0-0.45133 0.14706-0.83446 0.44141-1.1484 0.31398-0.33361 0.72612-0.5 1.2363-0.5 0.49061 0 0.89305 0.15673 1.207 0.4707 0.33361 0.31398 0.5 0.70678 0.5 1.1777v0.26562c0 0.078362 0.02893 0.14612 0.087891 0.20508 0.078614 0.039307 0.16761 0.058594 0.26562 0.058594h2.4727c0.098016 0 0.17737-0.02893 0.23633-0.087891 0.078362-0.078614 0.11719-0.16566 0.11719-0.26367 0-1.3737-0.45279-2.463-1.3555-3.2676-0.88307-0.82419-2.0885-1.2363-3.6191-1.2363zm11.268 0c-1.4914 0-2.6795 0.3928-3.5625 1.1777-0.86344 0.76533-1.2949 1.8334-1.2949 3.207 0 1.3148 0.3541 2.3054 1.0605 2.9727 0.72607 0.66721 1.6471 1.2167 2.7656 1.6484 0.7653 0.314 1.2955 0.54041 1.5898 0.67774 0.29435 0.13737 0.56913 0.34442 0.82422 0.61914 0.25512 0.25512 0.38281 0.57824 0.38281 0.9707 0 0.45135-0.14706 0.82479-0.44141 1.1191-0.29435 0.29435-0.6968 0.44141-1.207 0.44141-0.52984 0-0.98068-0.15868-1.3535-0.47266-0.35324-0.31398-0.5293-0.70483-0.5293-1.1758v-0.26562c0-0.15698-0.11818-0.23633-0.35352-0.23633h-2.5312c-0.098016 0-0.18701 0.040526-0.26562 0.11914-0.058961 0.058961-0.087891 0.13636-0.087891 0.23438v0.20703c0 1.2755 0.46051 2.2855 1.3828 3.0312 0.9223 0.7457 2.1587 1.1191 3.709 1.1191 1.5699 0 2.816-0.38311 3.7383-1.1484 0.92231-0.76533 1.3828-1.8044 1.3828-3.1191 0-0.88307-0.21476-1.6203-0.64648-2.209-0.41209-0.60833-0.90358-1.0688-1.4727-1.3828-0.54947-0.33361-1.2364-0.66639-2.0605-1-0.68684-0.2944-1.1764-0.51111-1.4707-0.64844-0.29425-0.15698-0.55933-0.36402-0.79492-0.61914-0.23559-0.25509-0.35352-0.56854-0.35352-0.94141 0-0.45133 0.14706-0.83446 0.44141-1.1484 0.31398-0.33361 0.72609-0.5 1.2363-0.5 0.49058 0 0.89305 0.15673 1.207 0.4707 0.33361 0.31398 0.5 0.70678 0.5 1.1777v0.26562c0 0.078362 0.02893 0.14612 0.087891 0.20508 0.078614 0.039307 0.16761 0.058594 0.26562 0.058594h2.4727c0.098016 0 0.17737-0.02893 0.23633-0.087891 0.078614-0.078614 0.11719-0.16566 0.11719-0.26367 0-1.3737-0.45081-2.463-1.3535-3.2676-0.88305-0.82419-2.0904-1.2363-3.6211-1.2363zm11.904 0.087891c-1.3737 0-2.4824 0.42181-3.3262 1.2656-0.84382 0.82419-1.2656 1.9039-1.2656 3.2383v6.3574c0 1.3541 0.41211 2.4434 1.2363 3.2676 0.84382 0.82419 1.9622 1.2363 3.3555 1.2363v0.00195c1.3933 0 2.5117-0.3831 3.3555-1.1484 0.86345-0.78493 1.2949-1.7659 1.2949-2.9434v-0.32422c0-0.19628-0.096686-0.29492-0.29297-0.29492l-1.502-0.029297c-0.19628 0-0.29492 0.096685-0.29492 0.29297v0.20703c0 0.64758-0.24379 1.2164-0.73438 1.707-0.47098 0.47095-1.0805 0.70703-1.8262 0.70703s-1.3533-0.25541-1.8242-0.76562c-0.45135-0.52984-0.67773-1.2167-0.67773-2.0605v-6.0645c0-0.84382 0.22638-1.521 0.67773-2.0312 0.47096-0.52984 1.0785-0.79492 1.8242-0.79492s1.3552 0.24575 1.8262 0.73633c0.49058 0.47098 0.73438 1.0302 0.73438 1.6777v0.23633c0 0.078362 0.030883 0.14612 0.089844 0.20508 0.05896 0.039307 0.12672 0.060547 0.20508 0.060547l1.502-0.060547c0.19628 0 0.29297-0.096685 0.29297-0.29297v-0.29492c0-0.7457-0.1954-1.4229-0.58789-2.0312-0.37284-0.62796-0.9127-1.1291-1.6191-1.502-0.70647-0.37284-1.5211-0.55859-2.4434-0.55859zm11.9 0c-1.2363 0-2.2753 0.36377-3.1191 1.0898-0.84392 0.70647-1.316 1.6371-1.4141 2.7949-0.01915 0.078362-0.008057 0.14807 0.03125 0.20703 0.05896 0.058961 0.13636 0.087891 0.23438 0.087891l1.6191 0.03125c0.19578 0 0.30406-0.098638 0.32422-0.29492 0.058885-0.60835 0.30463-1.1095 0.73633-1.502 0.43172-0.39247 0.94253-0.58789 1.5312-0.58789 0.7653 0 1.3632 0.29411 1.7949 0.88281 0.45135 0.58872 0.67773 1.3743 0.67773 2.3555v1.1465c0 0.078362-0.040778 0.11914-0.11914 0.11914h-2.0312c-1.5699 0-2.8353 0.39082-3.7969 1.1758-0.96156 0.7653-1.4414 1.9824-1.4414 3.6504 0 1.5699 0.39278 2.6689 1.1777 3.2969 0.80456 0.60835 1.7449 0.91211 2.8242 0.91211 1.4325 0 2.5122-0.47018 3.2383-1.4121 0.038803-0.040315 0.069686-0.051408 0.089844-0.03125 0.039307 0 0.058593 0.021239 0.058593 0.060547v0.85352c0 0.19628 0.098639 0.29297 0.29492 0.29297h1.5c0.19628 0 0.29492-0.096685 0.29492-0.29297v-9.9199c0-1.4914-0.41214-2.6794-1.2363-3.5625-0.80459-0.90268-1.8939-1.3535-3.2676-1.3535h-0.001953zm24.492 0c-1.3933 0-2.5117 0.42181-3.3555 1.2656-0.82422 0.82419-1.2363 1.9039-1.2363 3.2383v6.3574c0 1.354 0.41211 2.4434 1.2363 3.2676 0.84379 0.82419 1.9622 1.2363 3.3555 1.2363 1.2755 0 2.3049-0.33281 3.0898-1 0.80459-0.68684 1.2864-1.6098 1.4434-2.7676 0.01965-0.098016 3.7e-4 -0.17541-0.05859-0.23438-0.05897-0.058961-0.12867-0.089844-0.20704-0.089844l-1.4707-0.058594c-0.15698 0-0.26526 0.088995-0.32422 0.26562-0.13735 0.60833-0.43146 1.1075-0.88281 1.5-0.43172 0.37284-0.96189 0.56055-1.5898 0.56055-0.7457 0-1.3552-0.25541-1.8262-0.76562-0.45135-0.52984-0.67578-1.2071-0.67578-2.0312v-2.1484c0-0.078614 0.03883-0.11914 0.11719-0.11914h6.7109c0.19628 0 0.29492-0.096685 0.29492-0.29297v-3.6797c0-1.3344-0.42181-2.4141-1.2656-3.2383-0.82419-0.84382-1.9426-1.2656-3.3555-1.2656zm-12.418 1.8242c0.70643 0 1.2869 0.27475 1.7383 0.82422 0.471 0.52981 0.70508 1.2361 0.70508 2.1191v5.8281c0 0.88309-0.23411 1.601-0.70508 2.1504-0.45135 0.52982-1.0318 0.79492-1.7383 0.79492-0.76532 0-1.3825-0.27479-1.8535-0.82422-0.47142-0.54947-0.69663-1.2577-0.67773-2.1211v-2.9141-1.8828-1.0312c-0.019616-0.88305 0.20677-1.5893 0.67773-2.1191 0.47097-0.54943 1.0882-0.82422 1.8535-0.82422zm12.418 0c0.76533 0 1.3826 0.26508 1.8535 0.79492 0.47098 0.51021 0.70703 1.1874 0.70703 2.0312v1.9727c0 0.078615-0.03882 0.11719-0.11718 0.11719h-4.8281c-0.07836 0-0.11719-0.038573-0.11719-0.11719v-1.9727c0-0.84382 0.22443-1.521 0.67578-2.0312 0.47096-0.52984 1.0805-0.79492 1.8262-0.79492zm-24.254 6.1816h2.0605c0.078362 0 0.11719 0.040778 0.11719 0.11914v2.4707c0 0.9223-0.29411 1.6498-0.88281 2.1797-0.5691 0.51021-1.256 0.76562-2.0605 0.76562-0.68684 0-1.246-0.20705-1.6777-0.61914-0.4121-0.43172-0.61914-1.078-0.61914-1.9414 0-0.98119 0.27475-1.7184 0.82422-2.209 0.54947-0.51021 1.2963-0.76562 2.2383-0.76562zm-47.396 0.58984h1.5c0.098015 0 0.14844 0.048468 0.14844 0.14648v1.6777c0 0.66721-0.22638 1.1877-0.67773 1.5605-0.43172 0.37286-0.94255 0.55859-1.5312 0.55859-0.49058 0-0.89305-0.14706-1.207-0.44141-0.31398-0.31398-0.4707-0.77446-0.4707-1.3828 0-0.68682 0.19738-1.2073 0.58984-1.5605 0.4121-0.37284 0.96162-0.55859 1.6484-0.55859z" fill="#ffffff"/>
 </g>
</svg>
